<?xml version="1.0" encoding="UTF-8"?><svg id="Layer_2" xmlns="http://www.w3.org/2000/svg" viewBox="0 0 64.04 64.04"><defs><style>.cls-1{fill:#fff;}</style></defs><g id="Layer_2-2"><g id="Layer_2-2"><circle cx="32.02" cy="32.02" r="32.02"/></g><path class="cls-1" d="M13.51,31.99c0-1.69,1.18-3.06,2.64-3.06h31.74c1.46,0,2.64,1.37,2.64,3.06s-1.18,3.06-2.64,3.06h-31.74c-1.46,0-2.64-1.37-2.64-3.06Z"/><path class="cls-1" d="M13.51,45.07c0-1.69,1.18-3.06,2.64-3.06h31.74c1.46,0,2.64,1.37,2.64,3.06s-1.18,3.06-2.64,3.06h-31.74c-1.46,0-2.64-1.37-2.64-3.06Z"/><path class="cls-1" d="M13.51,19.2c0-1.69,1.18-3.06,2.64-3.06h31.74c1.46,0,2.64,1.37,2.64,3.06s-1.18,3.06-2.64,3.06h-31.74c-1.46,0-2.64-1.37-2.64-3.06Z"/></g></svg>