<?xml version="1.0" encoding="UTF-8"?><svg id="Layer_2" xmlns="http://www.w3.org/2000/svg" viewBox="0 0 64.03 64.03"><defs><style>.cls-1{fill:#fff;}</style></defs><g id="Layer_2-2"><circle cx="32.02" cy="32.02" r="32.02"/><g id="Layer_1-2"><path class="cls-1" d="M17.63,18.01l.88-.84,1.45-1.17c7.63-5.75,18.33-5.28,25.46,1.09.22.19.4.46.67.58l.84.88c.12.27.37.47.55.69,2.06,2.51,3.52,5.51,4.19,8.67.12.57.15,1.25.29,1.78.01.05,0,.09.06.13l1.46-1.4c.49-.47,1.66-.54,2.28-.31.31.11.53.3.81.44l.27.28c.12.28.3.5.39.8.27.76.09,1.65-.39,2.3l-6.1,5.87c-.91.68-2.17.65-3.05-.08l-5.79-6.02c-1.29-1.71.04-4.16,2.21-3.92.33.04,1.01.25,1.24.49l1.7,1.76c-.17-1.69-.73-3.41-1.51-4.92-3.82-7.41-12.9-10.34-20.3-6.64-7.92,3.96-10.77,13.89-6.22,21.42,4.83,7.98,15.59,9.77,22.74,3.84.73-.6,1.11-1.21,2.11-1.38,1.95-.34,3.47,1.77,2.57,3.53-.42.82-2.19,2.14-2.99,2.71-7.06,4.93-16.77,4.69-23.59-.56-9.54-7.34-10.59-21.29-2.26-29.9l.04-.1h.02Z"/></g></g></svg>